<?xml version="1.0" standalone="no"?>
<!DOCTYPE svg PUBLIC "-//W3C//DTD SVG 20010904//EN"
 "http://www.w3.org/TR/2001/REC-SVG-20010904/DTD/svg10.dtd">
<svg version="1.0" xmlns="http://www.w3.org/2000/svg"
 width="378.000000pt" height="378.000000pt" viewBox="0 0 378.000000 378.000000"
 preserveAspectRatio="xMidYMid meet">
<metadata>
Created by potrace 1.14, written by Peter Selinger 2001-2017
</metadata>
<g transform="translate(0.000000,378.000000) scale(0.100000,-0.100000)"
fill="#000000" stroke="none">
<path d="M1649 3486 c-3 -3 -31 -10 -64 -15 -106 -19 -251 -58 -300 -80 -11
-5 -42 -19 -70 -31 -58 -25 -201 -108 -262 -151 -22 -16 -87 -73 -144 -127
-229 -217 -400 -578 -471 -997 -12 -69 -26 -505 -17 -505 4 0 10 -30 14 -67
12 -115 53 -250 115 -376 37 -77 166 -255 176 -244 3 2 -18 41 -45 86 -94 154
-175 379 -206 567 -18 107 -20 439 -4 528 33 182 80 328 155 485 93 190 174
301 342 463 154 149 346 265 542 326 89 28 122 36 258 62 69 13 332 13 408 0
182 -33 270 -57 409 -115 194 -80 361 -198 513 -361 103 -112 120 -134 192
-255 109 -187 174 -374 205 -598 17 -117 20 -306 6 -378 -5 -26 -15 -82 -21
-123 -13 -75 -66 -254 -96 -320 -41 -91 -91 -182 -142 -260 -74 -114 -285
-325 -364 -365 -32 -15 -58 -32 -58 -37 0 -13 -192 -102 -275 -126 -38 -12
-126 -31 -194 -43 -107 -18 -149 -21 -305 -16 -182 5 -267 19 -391 61 -177 61
-326 189 -379 326 -49 128 -45 342 10 524 48 159 161 429 176 420 5 -3 8 0 7
7 -2 8 7 37 20 64 53 115 171 386 204 470 59 147 249 564 291 640 l40 70 18
-42 c10 -23 22 -63 27 -89 5 -25 14 -51 20 -57 6 -6 11 -22 11 -36 0 -15 34
-156 75 -316 41 -159 89 -348 106 -420 17 -71 42 -173 55 -225 12 -52 18 -96
13 -98 -5 -2 2 -22 15 -45 13 -23 43 -112 66 -197 23 -85 50 -184 60 -220 10
-36 21 -81 25 -100 l6 -35 -37 45 c-71 86 -249 257 -307 296 -33 22 -76 51
-97 65 -91 61 -286 119 -398 119 l-57 0 102 -35 c210 -70 356 -158 500 -298
136 -133 168 -176 253 -347 75 -150 112 -201 167 -227 61 -29 67 -17 59 110
-3 61 -13 137 -20 167 -14 54 -20 75 -71 264 -50 182 -209 809 -225 886 -4 19
-14 62 -23 95 -9 33 -32 128 -52 210 -38 157 -51 210 -66 259 -5 16 -9 40 -9
54 0 14 -4 39 -9 56 -6 17 -15 58 -22 91 -17 87 -58 224 -81 270 -28 55 -67
95 -94 95 -28 0 -80 -60 -122 -138 -43 -80 -197 -436 -302 -697 -48 -121 -101
-249 -118 -285 -16 -36 -39 -87 -51 -115 -12 -27 -26 -58 -32 -68 -46 -83
-191 -440 -230 -568 -52 -171 -68 -276 -69 -442 0 -84 4 -127 14 -145 8 -15
24 -53 36 -85 83 -215 306 -383 613 -462 97 -25 110 -26 326 -23 247 4 282 9
486 76 210 69 392 181 558 341 69 66 192 211 222 262 114 191 181 351 219 527
8 37 21 94 28 127 18 81 17 428 0 515 -32 155 -45 205 -79 305 -129 372 -421
703 -778 883 -197 99 -313 137 -538 177 -76 14 -457 22 -468 11z"/>
</g>
</svg>
